<?xml version="1.0" encoding="UTF-8"?>
<svg id="Layer_1" xmlns="http://www.w3.org/2000/svg" version="1.1" viewBox="0 0 500 500">
  <!-- Generator: Adobe Illustrator 29.3.1, SVG Export Plug-In . SVG Version: 2.1.0 Build 151)  -->
  <defs>
    <style>
      .st0 {
        fill: #3e86d2;
      }

      .st1 {
        fill: #4172bf;
      }

      .st2 {
        fill: #fcfcfc;
      }

      .st3 {
        fill: #376ebc;
      }

      .st4 {
        fill: #4273c1;
      }

      .st5 {
        fill: #3672c3;
      }

      .st6 {
        fill: #0874b0;
      }

      .st7 {
        fill: #0a75b1;
      }

      .st8 {
        fill: #377ac5;
      }

      .st9 {
        fill: #c5b7e1;
      }

      .st10 {
        fill: #4272bf;
      }

      .st11 {
        fill: #fbfbfb;
      }

      .st12 {
        fill: #034cad;
      }

      .st13 {
        fill: #f8f3f9;
      }

      .st14 {
        fill: #0975b0;
      }

      .st15 {
        fill: #0c76b2;
      }

      .st16 {
        fill: #054dae;
      }

      .st17 {
        fill: #f8f9fb;
      }

      .st18 {
        fill: #024bad;
      }

      .st19 {
        fill: #4170bf;
      }

      .st20 {
        fill: #0974b0;
      }

      .st21 {
        fill: #4372c0;
      }

      .st22 {
        fill: #3d91db;
      }

      .st23 {
        fill: #37b8fe;
      }

      .st24 {
        fill: #fdd3f4;
      }

      .st25 {
        fill: #faf9fb;
      }

      .st26 {
        fill: #044cad;
      }

      .st27 {
        fill: #034bad;
      }

      .st28 {
        fill: #4272c0;
      }

      .st29 {
        fill: #4171bf;
      }

      .st30 {
        fill: #37b9ff;
      }

      .st31 {
        fill: #fcfbfc;
      }

      .st32 {
        fill: #4271bf;
      }

      .st33 {
        fill: #0a75b0;
      }

      .st34 {
        fill: #8426e0;
      }

      .st35 {
        fill: #4275c3;
      }

      .st36 {
        fill: #3f6fbe;
      }
    </style>
  </defs>
  <path class="st18" d="M139.2,199l4,1,4.2,1,1.8.2,4.2.2.2.2v39.5l.2,27,.8,2.2,2.2,2.5,2.5,1h173l3.2-.2,2.5-1,1.2-1.2,1-1.8.2-1,.2-25.2.2-9.5h14.2l.2,41-.5,3.2-1,2-1,1v.8l2.5.2,2.5,2.8,2.8,3.5,3,3.5,2.2,2.8.2.8h.5l2.8,3.5,2.5,2.8,2.2,2.8,2.5,2.8,2.2,2.8,1,1.2-.8,3-1.8,4-2,3-2.8,2.8-3.2,2-2.5,1h-237l-3-.8-3-1.2-2.2-1.8-2-2.2-2-3.5-1-2-1-3.2.2-1.8,2.2-2.8,2.2-2.5,2.2-2.8,2.2-2.5,2.8-3.5,3.2-3.5,2.8-3.5,2.2-2.5,2.2-2.8,1.5-1.8,1.8-.5-.8-1.2-1.2-2-.5-2.2v-77.5Z"/>
  <path class="st18" d="M150.8,104.3h2.8l4.2.5,7,1.8,18.8,5.8,10,3,16.5,5,6.5,2,2.2,1.2,1.8,2,.5,1.2v2.5l-1.2,2.5-1.2,1-3,1.2-22.2,6.8-16,5-12.2,3.8-6.2,1.8-2.8.5-2.8.2h-3.8l.2,1.5.2.2.2,2.2v2.5l.8,5.5.8,2v4.2l-.8,2.5-1,.2.5,3-1,.2-5.5-1-14.5-4.2-31-9.2-10-3-2.5-1.2-1.5-1.8-.5-1.2v-3l.8-1.8,2-1.8,4-1.5,13.2-4,5.2-1.5,1.5-.2-2.5-1-19.8-6-2.5-1.2-1.5-1.8-.5-1.2v-3l.8-1.8,2-1.8,3.2-1.2,7.2-2.2,20-6,14.8-4.5,10-3,5-1.2,3.8-.5Z"/>
  <path class="st24" d="M192.5,140.8l3.5.5,1,.2v.5l2.2.5,1.2,1.2.8,1.5v3.2l.8,1.2.8,2,.5,3.2v4l.2,1.8.5.2-.2,1.2-4.5,1.5-4.2,1.2h-.8v.8l4.5,1.2,6.8,2,10.5,3.2,2.8,1.5,1.5,1.8.8,1.8v2.2l-1.2,2-1.2,1-2.5,1.2-6,2-35,10.5-7.2,2.2-8,2.2-4.2.8-2,.2-4.2-.2-5-1-4.5-1.2-.5-.2-.2.5-.2-.8-4.2-1.2-17.2-5.2-8.5-2.5-6.5-2-11.8-3.5-3.2-1.2-1.5-1-1.2-1.5-.5-1.2v-2.8l1-2,2.2-1.5,3.8-1.5,7.8-2.2,6-2,5.8-1.8.5-.2,31.2,9.2,5.5,1.2,2.5.2-.2-3,.8-.2.8-2.5v-4.2l-.8-2-.8-5.5v-3l-.2-1.8-.5-1.2.2-.5,6.5-.5,3.8-.8,7.8-2.2,12-3.8,13-4Z"/>
  <path class="st6" d="M404.5,96.5l2,.2,10,2,3.8.5-1.2,1.2-2.8,2-3.2,2.8-2.8,2.2-4.2,4-3,2.8-.2.8-.2,34-.2,6.5h-50.8l-.2-.2v-51l.2-.2,46.8-.2,3.2-3.8,3-3.5Z"/>
  <path class="st12" d="M154.5,337.8h6.2l3.8.8,3,1.2,2.2,1.8,1.8,2.8,1.5,3.8.8,3.2.5,5,.2,5v4.5l-.5,6.8-1,5.2-1.5,3.8-1.5,2.2-2,1.8-2.5,1.2-3,1-1.2.2h-7.8l-4.5-1.5-2.8-1.8-2-2.2-1.8-4-1-4.2-.5-4-.2-4.8v-4l.5-8.2,1-5.5,1.2-3,1.5-2.5.5-.8h.5v-.5l2.2-1.5,3.2-1.2,3-.5Z"/>
  <path class="st28" d="M110.5,140.3l2.2.8,7.2,2.2,22.2,6.5,5.8,1.2,1.5.2h5.8l3.5-.2-1,.5-4.5.5h-3.8l.2,1.5.2.2.2,2.2v2.5l.8,5.5.8,2v4.2l-.8,2.5-1,.2.5,3-1,.2-5.5-1-14.5-4.2-31-9.2-10-3-2.5-1.2-1.5-1.8-.5-1.2v-3l.8-1.8,2-1.8,4-1.5,13.2-4,5.2-1.5,1.5-.2-.2-.5Z"/>
  <path class="st9" d="M192.5,140.8l3.5.5,1,.2v.5l2.2.5,1.2,1.2.8,1.5v3.2l.8,1.2.8,2,.5,3.2v4l.2,1.8.5.2-.2,1.2-4.5,1.5-7.2,2.2-20.2,6.2-8.5,2.5-4.8,1.2-5,.8h-2.5l-3.8-.5-5.2-1.2-.8-.5,2,.2,4.5,1,2.5.2-.2-3,.8-.2.8-2.5v-4.2l-.8-2-.8-5.5v-3l-.2-1.8-.5-1.2.2-.5,6.5-.5,3.8-.8,7.8-2.2,12-3.8,13-4Z"/>
  <path class="st30" d="M313,139.8h30v34.5l-7.8.2-26.2-.2-.2-8.5v-25.8l4.2-.2Z"/>
  <path class="st26" d="M114.5,337.8h7.8l5,1,3,1.5,2,2.2,1.2,2.5.8,3,.2,1.8v5.2l-1,5-1.8,3.5-2,2.2-1,.5.2,1.2,3.5,8,4,9,.5,1.2.2,1.8-1,.5h-4l-2.2-.5-2-1.2-2-4-3.8-8.8-1.8-4-.5-.5h-4.2l-.2,17.2-.8,1.5-.5.2h-3.5l-2.8-1-.8-1.5v-46.5l3-.8,4.2-.5Z"/>
  <path class="st14" d="M299.2,337.8h6.2l4.5.8,3,1.2,2.2,1.8,1.5,2.5,1,2.8.5,3.8v3.2l-.5,3.8-1,3.8-1.5,2.5-1.5,1.8-1.2.8.2,1.5,3.5,7.8,2,4.5,2.5,5.8.2,2-.8.2h-4.5l-2.5-.8-1.8-1.5-1.5-3-4.5-10.5-1.5-3.2h-4.8v17l-.5,1.5-.5.5h-3.5l-2.2-.8-1.2-1-.2-47.2,1.5-.5,6.8-.8Z"/>
  <path class="st7" d="M336.5,337.8h7l1.8.8.8,1,1.2,4.8,3.5,16,3.2,19,1,6.2v2l-.8.5h-4l-2.5-.8-1.2-1.5-1.8-9.8-.5-3.5h-8l-1-.2-.5,5-1,5.8-1,4.5-.5.5h-5.8l-1.8-.8-.8-1,.5-4.2,4.5-26.5,2.8-15.5.5-1.2,1.8-.8,2.5-.2Z"/>
  <path class="st12" d="M83.8,337.8h7.5l4,.8,2.5,1,2,1.5,1.8,2,1.5,3.5.8,4.8v3l-.5,4-1.2,3.8-2,2.8-2,1.5-2.5,1.2-3.5,1-2,.2-5,.2-.2.2v15l-.2,2.5-1.2,1.2h-3.2l-2.8-1-.5-.5-.2-1v-17.5l.2-29,1.5-.5,5.5-.8Z"/>
  <path class="st16" d="M198.5,338.8h23.5l1.2.8.5,1.5v1.8l-1,2.8-1,.8-.8.2h-14.5l.5,8.8v2.5h13.2l1.2.8.5,1v3.8l-.5,1.5-1,.8-1.8.2h-11.8l.2,13.2,16,.2,1.2,1.2.2,1v1.8l-.8,2.5-1,1-.8.2h-22.5l-1.2-.5-.2-.8-.2-4.5v-42.2l.5-.2Z"/>
  <path class="st11" d="M214.5,302.3h67l1.8,2,2.5,4,2.2,3.2v1h-80l-.2-.5,5.5-8.2,1.2-1.5Z"/>
  <path class="st23" d="M404.5,96.5l2,.2,10,2,3.8.5-1.2,1.2-2.8,2-3.2,2.8-2.8,2.2-4.2,4-3,2.8-2,2-2,1.8-5.5,5.5-1.8,2-2.2,2.5-2.5,2.8-2.5,3.2-2.2,2.5-2,2.5-2,1.8-3.5,1-2-1.8-3-3-5-6.2-3.2-4.2-2.5-3.2.2-1.2,2.5-2.2,3.8-2.5,1.2-.2,1.5,1.8,3.8,6.8,2.5,3.8,1,1.2,1-.5,2-2,2.2-2.8,2.8-3.2,2.8-3.5,3.5-4.2,3-3.5,2-2.5,2.2-2.8,1.8-2.2,2.8-3.2,3-3.5Z"/>
  <path class="st26" d="M241.8,337.8h7.2l4.5,1,2,1,.8.8v1.8l-1.2,3-1.2,1.5-2.5-.2-3.8-.5h-4.8l-1.5,1-1.2,2.2-.8,3-.2,2.2v17.2l.5,3.2,1,2.8,1.2,1.5,1,.5h6.5l5.2-.5,1,.8.2.8v4.2l-1,1.5-1.8.8-4,.8h-7l-3.5-.8-3.5-1.8-2.5-2.2-1.5-2.5-1-2.8-.8-3.2-.8-5.2v-12.8l.8-6,1-4.2,2-4,1.2-1.5,2.8-1.8,2.8-1,2.8-.5Z"/>
  <path class="st7" d="M373.2,337.8h6l4,.8,3,1.2.8.8v1.8l-1.5,3.5-1,1-2.8-.2-3.5-.5h-4.8l-1.2.8-.8.2-.5,1.2-.8,2.2-.5,4v17.8l.8,4,1,2.2.8.8,1.2.5h6.8l5.8-.2.8,2.2v2.5l-1,2-1,.8-3.5.8-1.8.2h-6.2l-3-.5-3.2-1.2-2.2-1.5-2-2.2-1.5-3-1-3.5-.8-4.5-.2-2.5v-11.5l.5-5,.8-4,1-3,1.2-2.5,2.2-2.5,2.5-1.5,3.8-1,2-.2Z"/>
  <path class="st6" d="M304.2,208.3h22l.2.5-.2,24.2h-24l-.2-.2v-24.2l2.2-.2Z"/>
  <path class="st34" d="M315.5,107.5h24l.2.2v24l-.5.2h-20.2l-3.5-.2v-24.2Z"/>
  <path class="st34" d="M279.8,181.5h24l.2,24.2-.2.2h-24l-.2-8.5v-15.8l.2-.2Z"/>
  <path class="st33" d="M260.5,338.8h24.8l2,.5.5.8.2,2.5-.8,2.2-1.2,1.2-.8.5h-7.5l.5,12.8v27.2l-.2,1.2-.8.2h-4.2l-2.2-.8-1.2-.8-.2-.8-.2-39-8.5-.2-1.2-.8-.5-1.5v-3.8l1-1.5.8-.2Z"/>
  <path class="st16" d="M185,337.8h4l2,1,.5,1.2.5,6.5.5,8.8.2,7.5v13l-.2,9.2-.8,6-1.2,4-1.5,2.5-2.2,2-3.5,1.5-1.5.2h-3.5l-1.2-1.2-.2-1.2v-2.8l.5-1.2,2-.8,1.8-.8,1-1.5.8-3,.5-5.5.2-42.5.5-2.5,1-.5Z"/>
  <path class="st34" d="M230.2,217.3h22l.2.5-.2,21.5h-22v-22Z"/>
  <path class="st7" d="M415.5,337.8h3.2l2.5.8.2,1-2.8,6-2,4-2.2,5-1.5,2.8-1,2.5.2,1.8,1.8,3.5,2.8,5.8,4.8,9.8,2.5,5.2.2,2-.8.2h-4.5l-3.2-.8-1.5-1-1-1.2-2.8-5.5-2.8-5.8-3.5-7.2-1.2-2.8-.8-1.5v-2.2l1.8-3.5,2.8-5.8,4.2-8.8,1.2-2.5,1.5-1.2,1.8-.5Z"/>
  <path class="st2" d="M157,344.8h5l1,1,.8,2.8.5,4.8.2,8v5.8l-.2,6-.8,3.8-1,2-1.5,1.2-3,.8h-4.5l-1-1-.8-2-.5-4.2-.2-4.2v-13.8l.5-4.8.8-2.5,1-1.5,2-1.5,1.8-.5Z"/>
  <path class="st15" d="M393.8,337.8h3l2,.8.8,1,.2,1,1,17.5v28.2l-.8,1.5-.8.2h-3.8l-2.2-.5-1.2-.8-.2-.5-.2-2.2v-7.8l.2-37.2.8-1,1.2-.2Z"/>
  <path class="st20" d="M245,191.5h19.5v20h-19.5v-20Z"/>
  <path class="st30" d="M269.2,216h15.2l.2.5v19.2l-.5.2h-6.5l-12.8-.2v-19.5l4.2-.2Z"/>
  <path class="st16" d="M215,146l45.2.2v7l-.2,2.2h-39.2v-3.5l-.8-1.8-1.2-1.5-3-1.5-2.2-.8v-.2l1.5-.2Z"/>
  <path class="st27" d="M109.2,141h1.2l-.2.5-2,.5-.2,1.2-2.2,1.8-.2,1.2.2,1,.8,2.2.8.2.2.8.2,5.2-.2,3.2-.5.8.8,1.5,1.2,1,.5.2-.2,1.5h-.5l2.5,1-1,.2-11.8-3.5-10-3-2.5-1.2-1.5-1.8-.5-1.2v-3l.8-1.8,2-1.8,4-1.5,13.2-4,5.2-1.5Z"/>
  <path class="st25" d="M228,315.8h39.2l1.8.5,1.2,1.5v2.5l-1.8,2-1,.2h-39.8l-1.8-1.5-.5-1.2.2-2,1.2-1.5,1-.5Z"/>
  <path class="st24" d="M197,141.5l1.8.2,7.8,2.5,4.2,1.2,2.2.5h2l-.8.5,3.2,1.2,2,1.5,1.2,1.8.2,1v2.5l-.5,1.5h-.5l-.5,1-2.8,1.5-8.2,2.8-6,1.8-.8-.2,1.2-.5h.8l-.2-.8v-.8l-.5-1.8v-4l-.5-3.2-.8-2-.8-1.2v-3.2l-1-2-2.2-1-.8-.2v-.5Z"/>
  <path class="st31" d="M300.5,345.5h6l1.2,1.2,1,2,.2,1v4.5l-.8,3-1.5,1.8-2.2.8-1.8.2h-3.5l-.2-1.8v-11.2l.5-1.2,1-.2Z"/>
  <path class="st2" d="M86.2,345.5h5.5l1.2,1.2,1,2.2.5,2.2v2.5l-.5,3-.8,1.5-1,1-1.5.5-2,.2h-4v-14l1.5-.5Z"/>
  <path class="st31" d="M117,345.5h5.8l1.2,1.2,1,2.2.2,1.2v3.8l-.8,3-1,1.5-2.5,1.2-2.5.2h-2.8l-.2-.2v-13.5l.5-.5,1-.2Z"/>
  <path class="st17" d="M339.2,347.3h.5l1.5,8,1,5.5.2,1.2v2.5l-5.2.2-.8-.2.2-2.8,1.2-8,1-6,.2-.5Z"/>
  <path class="st32" d="M351.2,104.5h2.2v.5l-1.2.5-.5.8-.2,26.5h.5l.2,4v6l.2,1.5v4.8l-.2,2v2.8l.8.5v.5l1,.2h46l.8-1,.5-2,.2-2,.8-.2v5.8h-50.8l-.2-.2v-50.8Z"/>
  <path class="st5" d="M302,208.8l.2,1,.8-.2.8-.8,1,.2h-.8l-.5,1-.5,1.5.2,7.8.2,4-.2,6.2.2,1.8.5.2.2.8,1.8.2h11l6.8-.2.8-.8.8-3,.2-3.2.2-7.2h.2l.2,2v13h-24l-.2-.2v-24Z"/>
  <path class="st10" d="M245,192h1.2l.2.5-.5.2v10.2l.2,1.5v4.2l-.2.5h.5v.8l.8.2v.5h.5v.5l14.8-.2.2-2.5.5-.8.5-2.5.5-.2.2,2.2v4.2h-19.5v-19.5Z"/>
  <path class="st21" d="M351.5,104h46.5l-.5,1.2-.8.2v-.5l-.8-.2v-.5l-1.8.2h-34.5l-8.2-.2v-.2Z"/>
  <path class="st29" d="M325.8,218h.2l.2,2v13h-21.8v-.5h12.5l6.8-.2.8-.8.8-3,.2-3.2.2-7.2Z"/>
  <path class="st22" d="M401.8,149.8h.5v5.8h-50.5v-.2l48.2-.2.8-1,.5-2,.2-2,.2-.2Z"/>
  <path class="st35" d="M269.2,346.8h.2l.2,37.8.2.2v1.5l.8.5h-1l-.5-1v-39Z"/>
  <path class="st28" d="M291.2,346.8h.2l.2,37.8.2.2v1.2l-.8.2v-39.5Z"/>
  <path class="st21" d="M351.2,104.5h2.2v.5l-1.2.5-.5.8-.2,26.5h-.2v-28.2Z"/>
  <path class="st21" d="M404.2,365.5l.8,1,.2.8,1,1,.8,2.5.8,1,.8,2,3.5,7.5-.2.8-4.5-9.2-2.8-5.8-.5-1.2.2-.2Z"/>
  <path class="st21" d="M304.8,370l1,1,.8,1.5.8,2,1.5,3.2.8,2.2,1.2,2.8-.2,1-3.5-8-2.2-5.2v-.5Z"/>
  <path class="st1" d="M401.8,149.8h.5v5.8l-2.2-.5.8-1,.5-2,.2-2,.2-.2Z"/>
  <path class="st3" d="M324.8,208.3h1.5l.2.5-.5,4.5h-.2l-.2-2.2-.8-2-1.8-.2v-.2l1.8-.2Z"/>
  <path class="st4" d="M362.8,343l.5.5-1,2.5-.5.8-.5,1.5-.8,1,.5-2.5,1.5-3.2.2-.5Z"/>
  <path class="st26" d="M302,208.5h10v.2l-8.8.2-.2.8h-.8l-.2-1.2Z"/>
  <path class="st29" d="M307.5,346.5l1,.5.8,1.5v6.8l-.5.2v-5.8l-1-2.8-.2-.5Z"/>
  <path class="st13" d="M218.8,149l1,.5,1,1.5v2.2l-.8-.5-.8-2.5-.5-1.2Z"/>
  <path class="st1" d="M367.5,339h.5v.5l-1.5.8-.2.5-1.5.5v.5l-1.2,1.2-.5-.2,1.8-2,2.2-1.5.5-.2Z"/>
  <path class="st1" d="M334,338h1.2l.2.5h-1.2l-1,.5-.5.8h-.5l-.2,1.5h-.2l.2-2.2,1-.8,1-.2Z"/>
  <path class="st0" d="M423.5,385.8h.5l.2,2-.8.2h-4.5v-.2l4.2-.2.2-1.8Z"/>
  <path class="st8" d="M324.2,383.5h.2v1.5h.5l.2,1.8-.5.5-.8-1,.2-2.8Z"/>
  <path class="st19" d="M303.8,208.8l1,.2h-.8l-.5,1-.5,1.2-.8.2v-1.8l.8-.2.8-.8Z"/>
  <path class="st21" d="M345.8,380.8l.8,1,.2,1.8v2.2h-.2l-.8-3.8v-1.2Z"/>
  <path class="st36" d="M396,104h2l-.5,1.2-.8.2v-.5l-.8-.2v-.8Z"/>
  <path class="st21" d="M360.8,377.3l.8.2.5,1v1.2l-.5.2-.8-2.2v-.5Z"/>
</svg>